<svg width="572" height="556" viewBox="0 0 572 556" fill="none" xmlns="http://www.w3.org/2000/svg">
<path d="M489.703 8.94531H315.494V336.831H489.703V8.94531Z" fill="#EBEBEB"/>
<path d="M480.954 18.449H322.458V327.055H480.954V18.449Z" fill="#FAFAFA"/>
<path d="M480.954 22.0842L322.458 233.305V18.449H480.954V22.0842Z" fill="#F5F5F5"/>
<path d="M484.4 107.227H322.458V110.511H484.4V107.227Z" fill="#EBEBEB"/>
<path d="M484.4 180.71H322.458V183.995H484.4V180.71Z" fill="#EBEBEB"/>
<path d="M484.4 254.207H322.458V257.492H484.4V254.207Z" fill="#EBEBEB"/>
<path d="M397.703 108.876V335.806H405.709V108.876H397.703Z" fill="#EBEBEB"/>
<path d="M356.611 18.449H352.98V108.863H356.611V18.449Z" fill="#EBEBEB"/>
<path d="M387.889 18.449H384.258V108.863H387.889V18.449Z" fill="#EBEBEB"/>
<path d="M419.179 18.449H415.548V108.863H419.179V18.449Z" fill="#EBEBEB"/>
<path d="M450.47 18.449H446.839V108.863H450.47V18.449Z" fill="#EBEBEB"/>
<path d="M315.494 3.37561H308.12V338.843H315.494V3.37561Z" fill="#F5F5F5"/>
<path d="M497.077 339.778L489.703 336.818V3.37561H497.077V339.778Z" fill="#E0E0E0"/>
<path d="M497.064 0H308.12V8.94529H497.064V0Z" fill="#E0E0E0"/>
<path d="M502.071 340.882H302.903V349.217H502.071V340.882Z" fill="#E0E0E0"/>
<path d="M489.703 336.818L502.058 340.882H302.903L315.494 336.818H489.703Z" fill="#EBEBEB"/>
<path d="M316.076 552.492C336.858 539.418 343.141 512.803 343.958 488.524C344.095 484.474 344.801 480.241 343.202 476.567C341.604 472.893 337.477 470.153 333.908 471.607C330.947 472.802 329.472 476.203 327.712 478.982C325.317 482.677 321.976 485.589 318.071 487.382C315.518 488.537 312.42 489.134 310.09 487.551C306.893 485.395 306.819 480.54 307.104 476.528C307.649 469.041 308.19 461.55 308.727 454.054C309.225 450.052 309.1 445.992 308.356 442.032C307.414 438.137 305.022 434.385 301.441 433.048C297.859 431.711 293.2 433.593 292.159 437.475C291.908 439.129 291.763 440.799 291.725 442.474C291.502 444.135 290.647 445.927 289.098 446.278C287.549 446.628 286.074 445.395 285.009 444.135C281.291 439.786 278.974 434.359 276.805 428.971C274.636 423.583 272.542 418.092 269.246 413.392C265.949 408.692 261.203 404.823 255.726 404.096C250.248 403.369 244.164 406.511 242.404 412.054C240.644 417.598 243.408 423.609 246.543 428.439C251.184 435.623 256.794 442.064 263.198 447.563C264.463 448.415 265.432 449.672 265.962 451.146C266.619 453.886 264.016 456.339 261.439 457.067C258.502 457.858 255.428 457.326 252.405 457.469C249.381 457.612 246.06 458.767 244.734 461.65C242.887 465.648 245.886 470.192 248.922 473.256C255.014 479.375 262.065 484.35 269.766 487.966C272.53 489.264 275.429 490.42 277.573 492.653C279.717 494.886 280.845 498.612 279.283 501.352C277.722 504.091 274.128 504.727 271.204 503.948C268.279 503.169 265.751 501.287 263.012 499.962C257.87 497.496 251.042 497.366 247.349 501.91C246.21 503.478 245.433 505.3 245.078 507.235C244.724 509.17 244.801 511.164 245.304 513.062C246.34 516.854 248.098 520.387 250.471 523.449C258.13 534.581 268.475 543.381 280.448 548.947C292.382 554.27 303.646 556.296 316.113 552.518" fill="#F5F5F5"/>
<path d="M312.309 553.66C312.098 544.001 313.721 549.35 311.07 536.886C308.109 523.414 304.41 510.133 299.991 497.106C298.826 493.644 297.686 490.217 296.571 486.824C295.443 483.461 294.315 480.125 293.039 476.931C290.553 470.796 287.744 464.81 284.624 459.001C281.688 453.432 278.713 448.264 275.95 443.422C273.186 438.579 270.411 434.178 267.759 430.257C263.625 424.034 259.021 418.168 253.991 412.717C252.219 410.782 250.794 409.341 249.815 408.368L248.699 407.277C248.577 407.149 248.444 407.031 248.303 406.926C248.405 407.073 248.521 407.208 248.65 407.329L249.716 408.471C250.657 409.484 252.045 410.964 253.793 412.925C258.728 418.436 263.26 424.33 267.35 430.555C269.965 434.45 272.654 438.93 275.454 443.746C278.255 448.563 281.204 453.743 284.129 459.326C287.212 465.123 289.992 471.091 292.456 477.203C293.696 480.384 294.836 483.695 295.963 487.07L299.384 497.34C303.802 510.338 307.525 523.584 310.537 537.016C313.176 549.441 311.602 544.04 311.863 553.66" fill="#E0E0E0"/>
<path d="M292.865 476.879C293.092 476.338 293.259 475.772 293.361 475.191C293.634 474.1 293.981 472.503 294.377 470.517C295.195 466.544 296.125 461.039 297.141 454.937C298.157 448.835 299.161 443.37 300.016 439.423C300.449 437.462 300.809 435.865 301.069 434.762C301.235 434.199 301.347 433.621 301.404 433.035C301.144 433.558 300.945 434.112 300.809 434.684C300.462 435.762 300.028 437.281 299.57 439.306C298.578 443.201 297.488 448.719 296.484 454.808C295.48 460.897 294.613 466.246 293.931 470.387C293.609 472.257 293.336 473.841 293.126 475.1C292.977 475.681 292.889 476.278 292.865 476.879Z" fill="#E0E0E0"/>
<path d="M244.164 463.701C244.803 463.898 245.459 464.029 246.122 464.091C247.361 464.298 249.195 464.597 251.438 465.038C255.924 465.869 262.083 467.258 268.787 469.102C275.492 470.946 281.539 472.906 285.851 474.451C288.02 475.204 289.755 475.866 290.957 476.308C291.564 476.583 292.195 476.796 292.841 476.944C292.275 476.582 291.677 476.278 291.056 476.035C289.879 475.503 288.169 474.737 286.013 473.945C281.725 472.27 275.715 470.232 268.961 468.375C263.207 466.77 257.379 465.47 251.5 464.48C249.232 464.117 247.398 463.896 246.122 463.779C245.473 463.688 244.818 463.662 244.164 463.701Z" fill="#E0E0E0"/>
<path d="M310.561 535.886C310.716 535.703 310.846 535.498 310.946 535.276L311.912 533.472C312.742 531.901 313.895 529.577 315.283 526.707C318.046 520.956 321.64 512.894 325.494 503.935C329.348 494.977 332.855 486.876 335.507 481.072L338.667 474.217L339.522 472.348C339.639 472.133 339.722 471.901 339.77 471.66C339.63 471.852 339.506 472.056 339.398 472.27L338.432 474.074C337.589 475.658 336.449 477.969 335.061 480.839C332.285 486.59 328.691 494.665 324.85 503.624C321.008 512.582 317.489 520.67 314.837 526.474L311.664 533.342L310.822 535.211C310.707 535.423 310.62 535.65 310.561 535.886Z" fill="#E0E0E0"/>
<path d="M246.457 508.986C246.651 509.125 246.864 509.234 247.089 509.31L248.947 510.128L255.763 513.036C261.563 515.49 269.531 518.957 278.329 522.812C287.128 526.668 295.133 530.057 300.982 532.381C303.907 533.536 306.274 534.458 307.922 535.055L309.83 535.731C310.049 535.822 310.278 535.883 310.512 535.912C310.316 535.776 310.103 535.667 309.88 535.588L308.021 534.783L301.156 531.888C295.369 529.434 287.4 525.967 278.59 522.111C269.779 518.255 261.798 514.867 255.949 512.543C253.024 511.387 250.657 510.466 248.997 509.881L247.089 509.141C246.885 509.061 246.673 509.008 246.457 508.986Z" fill="#E0E0E0"/>
<path d="M218.859 49.8028H172.004V65.6031H218.859V49.8028Z" fill="#F5F5F5"/>
<path d="M262.802 81.4035H215.947V97.2038H262.802V81.4035Z" fill="#FAFAFA"/>
<path d="M236.642 81.4034C236.632 81.3041 236.632 81.2041 236.642 81.1048V80.2869C236.642 79.5209 236.642 78.4823 236.642 77.158C236.642 74.4056 236.58 70.4847 236.53 65.6031L236.741 65.8238L190.89 65.9407C191.026 65.7849 190.555 66.2782 191.2 65.6031V81.4034L190.877 81.0789L223.543 81.2217L233.172 81.3126H235.762H236.691C236.411 81.3309 236.129 81.3309 235.849 81.3126H233.37L223.828 81.4034L190.853 81.5592H190.543V73.5098C190.543 72.2115 190.543 70.9132 190.543 69.511V65.6291C191.187 64.954 190.729 65.4343 190.877 65.2915L236.729 65.4084H236.939V65.6291C236.939 70.5756 236.853 74.5354 236.828 77.3138C236.828 78.6121 236.828 79.6377 236.828 80.3908C236.828 81.1438 236.654 81.4164 236.642 81.4034Z" fill="#E0E0E0"/>
<path d="M556.002 184.683H509.147V200.483H556.002V184.683Z" fill="#FAFAFA"/>
<path d="M571.765 184.281C571.755 184.182 571.755 184.082 571.765 183.982C571.765 183.762 571.765 183.489 571.765 183.164C571.765 182.398 571.765 181.36 571.765 180.035C571.765 177.283 571.703 173.375 571.653 168.481L571.864 168.701L526.013 168.818C526.149 168.662 525.678 169.156 526.322 168.481V184.255L526 183.93L558.753 184.073L568.369 184.177H570.972H571.901C571.616 184.196 571.331 184.196 571.046 184.177H568.567L559.025 184.268L525.913 184.567H525.604V176.53C525.604 175.232 525.604 173.869 525.604 172.518V168.468C526.248 167.792 525.79 168.273 525.938 168.13L571.789 168.247H572V168.468C572 173.414 571.913 177.374 571.889 180.152C571.889 181.451 571.889 182.476 571.889 183.229C571.889 183.982 571.765 184.294 571.765 184.281Z" fill="#E0E0E0"/>
<path d="M536.286 362.615H489.431V378.416H536.286V362.615Z" fill="#F5F5F5"/>
<path d="M552.594 377.87H505.739V393.671H552.594V377.87Z" fill="#FAFAFA"/>
<path d="M522.84 409.172C522.83 409.077 522.83 408.982 522.84 408.887V408.056C522.84 407.29 522.84 406.251 522.84 404.927C522.84 402.174 522.778 398.267 522.729 393.372L522.939 393.593L477.088 393.71C477.224 393.567 476.754 394.047 477.398 393.372V409.172L477.076 408.848L509.828 409.004L519.445 409.094H522.047H522.977C522.692 409.11 522.406 409.11 522.122 409.094H519.643L510.101 409.185L477.125 409.341H476.816V401.292C476.816 399.993 476.816 398.63 476.816 397.28V393.229C477.46 392.554 477.001 393.047 477.15 392.892L523.001 393.008H523.212V393.229C523.212 398.176 523.125 402.136 523.101 404.914C523.101 406.212 523.101 407.251 523.101 408.004C523.101 408.757 522.853 409.237 522.84 409.172Z" fill="#E0E0E0"/>
<path d="M63.8199 148.538H16.9649V164.339H63.8199V148.538Z" fill="#FAFAFA"/>
<path d="M84.5274 148.539C84.5274 148.539 84.5274 148.422 84.5274 148.24C84.5274 148.058 84.5274 147.747 84.5274 147.422C84.5274 146.656 84.5274 145.604 84.5274 144.28C84.5274 141.541 84.453 137.62 84.4034 132.725L84.6141 132.946L38.7629 133.063L39.0851 132.738V140.814C39.0851 143.41 39.0851 146.007 39.0851 148.539L38.7753 148.201L71.5279 148.357L81.1443 148.448H83.7467C84.0517 148.418 84.3587 148.418 84.6637 148.448C84.3831 148.467 84.1016 148.467 83.821 148.448H81.3426L71.8006 148.539L38.8372 148.694H38.5274V148.37C38.5274 145.864 38.5274 143.293 38.5274 140.645V132.57C39.1718 131.881 38.7009 132.375 38.8496 132.219L84.7009 132.336H84.7504V132.557C84.7504 137.503 84.6513 141.463 84.6265 144.241C84.6265 145.54 84.6265 146.565 84.6265 147.318C84.6372 147.728 84.6039 148.137 84.5274 148.539Z" fill="#E0E0E0"/>
<path d="M566.052 554.971C566.052 555.153 439.329 555.309 283.038 555.309C126.748 555.309 0 555.153 0 554.971C0 554.79 126.698 554.582 283.026 554.582C439.354 554.582 566.052 554.79 566.052 554.971Z" fill="#263238"/>
<path d="M520.362 489.394L518.701 521.54C518.67 522.091 518.44 522.61 518.058 522.99C517.676 523.371 517.171 523.586 516.644 523.591L461.437 524.02C460.888 524.02 460.361 523.794 459.969 523.391C459.577 522.988 459.352 522.44 459.342 521.865L459.169 496.833C459.169 496.257 459.387 495.704 459.774 495.296C460.162 494.887 460.688 494.656 461.238 494.652H495.193C495.741 494.646 496.265 494.418 496.655 494.016L502.517 487.875C502.901 487.47 503.422 487.242 503.967 487.239L518.28 487.135C518.561 487.131 518.839 487.188 519.098 487.301C519.358 487.414 519.592 487.581 519.787 487.793C519.982 488.005 520.134 488.256 520.232 488.531C520.331 488.807 520.375 489.1 520.362 489.394Z" fill="#FF725E"/>
<path opacity="0.3" d="M520.362 489.394L518.701 521.54C518.67 522.091 518.44 522.61 518.058 522.99C517.676 523.371 517.171 523.586 516.644 523.591L461.437 524.02C460.888 524.02 460.361 523.794 459.969 523.391C459.577 522.988 459.352 522.44 459.342 521.865L459.169 496.833C459.169 496.257 459.387 495.704 459.774 495.296C460.162 494.887 460.688 494.656 461.238 494.652H495.193C495.741 494.646 496.265 494.418 496.655 494.016L502.517 487.875C502.901 487.47 503.422 487.242 503.967 487.239L518.28 487.135C518.561 487.131 518.839 487.188 519.098 487.301C519.358 487.414 519.592 487.581 519.787 487.793C519.982 488.005 520.134 488.256 520.232 488.531C520.331 488.807 520.375 489.1 520.362 489.394Z" fill="black"/>
<path d="M459.393 528.636L519.717 528.173L519.453 490.406L459.129 490.87L459.393 528.636Z" fill="#F5F5F5"/>
<path d="M524.278 493.757L519.953 533.173C519.923 533.52 519.773 533.844 519.531 534.083C519.289 534.322 518.972 534.46 518.639 534.471L459.851 534.913C459.51 534.92 459.181 534.789 458.931 534.547C458.682 534.304 458.531 533.97 458.512 533.614L455.278 494.224C455.26 494.033 455.282 493.84 455.34 493.657C455.398 493.475 455.492 493.308 455.616 493.166C455.74 493.024 455.89 492.911 456.058 492.834C456.226 492.756 456.408 492.717 456.591 492.718L522.952 492.199C523.14 492.199 523.325 492.241 523.497 492.322C523.668 492.403 523.821 492.521 523.947 492.668C524.072 492.815 524.166 492.987 524.223 493.175C524.28 493.363 524.299 493.561 524.278 493.757Z" fill="#FF725E"/>
<path d="M536.608 483.331L534.947 515.477C534.916 516.028 534.686 516.546 534.305 516.927C533.923 517.308 533.417 517.523 532.89 517.528L477.683 517.944C477.411 517.947 477.141 517.894 476.889 517.789C476.637 517.683 476.407 517.526 476.212 517.327C476.018 517.128 475.863 516.891 475.756 516.629C475.649 516.367 475.592 516.086 475.589 515.801L475.415 490.77C475.414 490.484 475.466 490.201 475.569 489.937C475.672 489.672 475.825 489.431 476.017 489.229C476.209 489.026 476.438 488.865 476.69 488.755C476.942 488.646 477.212 488.589 477.485 488.589H511.439C511.986 488.592 512.512 488.368 512.902 487.966L518.763 481.825C519.147 481.42 519.668 481.191 520.213 481.189L534.526 481.085C534.805 481.083 535.082 481.14 535.339 481.253C535.597 481.366 535.83 481.533 536.024 481.743C536.219 481.952 536.371 482.201 536.471 482.474C536.571 482.747 536.618 483.039 536.608 483.331Z" fill="#FF725E"/>
<path opacity="0.3" d="M536.608 483.331L534.947 515.477C534.916 516.028 534.686 516.546 534.305 516.927C533.923 517.308 533.417 517.523 532.89 517.528L477.683 517.944C477.411 517.947 477.141 517.894 476.889 517.789C476.637 517.683 476.407 517.526 476.212 517.327C476.018 517.128 475.863 516.891 475.756 516.629C475.649 516.367 475.592 516.086 475.589 515.801L475.415 490.77C475.414 490.484 475.466 490.201 475.569 489.937C475.672 489.672 475.825 489.431 476.017 489.229C476.209 489.026 476.438 488.865 476.69 488.755C476.942 488.646 477.212 488.589 477.485 488.589H511.439C511.986 488.592 512.512 488.368 512.902 487.966L518.763 481.825C519.147 481.42 519.668 481.191 520.213 481.189L534.526 481.085C534.805 481.083 535.082 481.14 535.339 481.253C535.597 481.366 535.83 481.533 536.024 481.743C536.219 481.952 536.371 482.201 536.471 482.474C536.571 482.747 536.618 483.039 536.608 483.331Z" fill="black"/>
<path d="M475.645 522.568L535.969 522.105L535.704 484.338L475.381 484.801L475.645 522.568Z" fill="#F5F5F5"/>
<path d="M540.524 487.694L536.187 527.11C536.168 527.461 536.021 527.792 535.777 528.033C535.532 528.275 535.209 528.409 534.873 528.408L476.084 528.863C475.745 528.867 475.417 528.734 475.168 528.493C474.919 528.251 474.768 527.919 474.746 527.564L471.512 488.2C471.496 488.008 471.519 487.815 471.579 487.632C471.638 487.45 471.734 487.283 471.858 487.141C471.983 486.999 472.134 486.887 472.303 486.81C472.472 486.733 472.654 486.693 472.838 486.694L539.186 486.175C539.371 486.174 539.555 486.214 539.725 486.291C539.895 486.369 540.048 486.483 540.174 486.626C540.3 486.768 540.396 486.937 540.456 487.121C540.516 487.305 540.539 487.5 540.524 487.694Z" fill="#FF725E"/>
<path opacity="0.3" d="M540.524 487.694L536.187 527.11C536.168 527.461 536.021 527.792 535.777 528.033C535.532 528.275 535.209 528.409 534.873 528.408L476.084 528.863C475.745 528.867 475.417 528.734 475.168 528.493C474.919 528.251 474.768 527.919 474.746 527.564L471.512 488.2C471.496 488.008 471.519 487.815 471.579 487.632C471.638 487.45 471.734 487.283 471.858 487.141C471.983 486.999 472.134 486.887 472.303 486.81C472.472 486.733 472.654 486.693 472.838 486.694L539.186 486.175C539.371 486.174 539.555 486.214 539.725 486.291C539.895 486.369 540.048 486.483 540.174 486.626C540.3 486.768 540.396 486.937 540.456 487.121C540.516 487.305 540.539 487.5 540.524 487.694Z" fill="black"/>
<path d="M554.911 490.861L553.251 522.994C553.222 523.548 552.994 524.069 552.612 524.453C552.23 524.836 551.723 525.053 551.194 525.058L495.986 525.474C495.436 525.477 494.907 525.253 494.515 524.849C494.122 524.445 493.899 523.895 493.892 523.319L493.694 498.3C493.694 497.724 493.911 497.171 494.299 496.763C494.687 496.354 495.213 496.123 495.763 496.119H529.718C529.99 496.123 530.26 496.068 530.511 495.959C530.763 495.849 530.99 495.688 531.18 495.483L537.042 489.355C537.426 488.95 537.947 488.722 538.492 488.719L552.805 488.602C553.087 488.597 553.367 488.652 553.629 488.764C553.89 488.876 554.127 489.043 554.324 489.255C554.521 489.466 554.675 489.718 554.776 489.994C554.877 490.271 554.923 490.566 554.911 490.861Z" fill="#FF725E"/>
<path d="M493.933 530.096L554.257 529.633L553.993 491.866L493.669 492.329L493.933 530.096Z" fill="#F5F5F5"/>
<path d="M558.827 495.224L554.502 534.64C554.463 534.978 554.309 535.289 554.067 535.516C553.825 535.742 553.513 535.87 553.189 535.873L494.388 536.328C494.05 536.332 493.723 536.199 493.476 535.957C493.229 535.715 493.081 535.383 493.062 535.03L489.827 495.665C489.81 495.473 489.831 495.28 489.889 495.097C489.947 494.914 490.041 494.745 490.165 494.603C490.288 494.46 490.439 494.345 490.607 494.267C490.775 494.188 490.957 494.147 491.141 494.146L557.489 493.64C557.68 493.638 557.87 493.679 558.044 493.761C558.219 493.842 558.375 493.962 558.502 494.112C558.629 494.263 558.724 494.439 558.78 494.631C558.836 494.823 558.852 495.025 558.827 495.224Z" fill="#FF725E"/>
<path d="M489.815 500.586V555.257H565.11V500.586H489.815ZM514.389 510.44C514.389 509.369 514.795 508.342 515.518 507.585C516.24 506.827 517.221 506.402 518.243 506.402H536.682C537.206 506.371 537.73 506.452 538.223 506.64C538.716 506.829 539.166 507.121 539.548 507.498C539.929 507.876 540.233 508.331 540.44 508.835C540.648 509.34 540.755 509.884 540.755 510.433C540.755 510.983 540.648 511.526 540.44 512.031C540.233 512.536 539.929 512.991 539.548 513.368C539.166 513.745 538.716 514.037 538.223 514.226C537.73 514.414 537.206 514.495 536.682 514.464H518.243C517.223 514.464 516.244 514.041 515.522 513.286C514.8 512.532 514.392 511.508 514.389 510.44Z" fill="#455A64"/>
<path d="M449.23 500.586V555.257H489.815V500.586H449.23Z" fill="#263238"/>
<path d="M307.302 513.958L303.374 537.704C303.374 537.704 279.023 541.495 277.895 545.805L321.541 555.439L329.113 518.723L307.302 513.958Z" fill="#21569A"/>
<g opacity="0.6">
<path d="M317.266 538.691C317.657 538.919 317.954 539.29 318.103 539.732C318.251 540.174 318.24 540.658 318.071 541.093C317.871 541.513 317.523 541.837 317.101 541.997C316.679 542.156 316.214 542.139 315.803 541.95C315.376 541.709 315.051 541.307 314.894 540.825C314.738 540.343 314.762 539.817 314.961 539.353C315.214 538.93 315.616 538.628 316.08 538.514C316.544 538.4 317.033 538.482 317.439 538.743" fill="white"/>
</g>
<path opacity="0.6" d="M321.541 555.426L322.161 551.7L280.027 543.91C280.027 543.91 277.908 544.364 277.846 545.844L321.541 555.426Z" fill="white"/>
<path d="M302.705 537.314C302.705 537.535 303.721 537.873 304.626 538.82C305.53 539.768 305.865 540.833 306.113 540.781C306.36 540.729 306.261 539.379 305.146 538.249C304.031 537.12 302.705 537.094 302.705 537.314Z" fill="#263238"/>
<path d="M297.735 538.288C297.636 538.483 298.491 539.067 298.975 540.171C299.458 541.274 299.508 542.326 299.731 542.365C299.954 542.404 300.325 541.17 299.644 539.768C298.962 538.366 297.785 538.067 297.735 538.288Z" fill="#263238"/>
<path d="M293.981 543.442C294.166 543.533 294.687 542.495 294.377 541.144C294.067 539.794 293.138 539.093 293.051 539.262C292.964 539.431 293.411 540.223 293.646 541.326C293.881 542.43 293.77 543.377 293.981 543.442Z" fill="#263238"/>
<path d="M304.179 532.005C304.179 532.225 305.27 532.134 306.447 532.485C307.624 532.835 308.504 533.446 308.653 533.277C308.802 533.108 308.058 532.108 306.646 531.719C305.233 531.329 304.093 531.81 304.179 532.005Z" fill="#263238"/>
<path opacity="0.3" d="M306.522 518.671L305.815 522.89L327.316 527.421L328.109 523.643L306.522 518.671Z" fill="black"/>
<path d="M305.059 527.227C305.732 527.589 306.485 527.755 307.24 527.707C308.072 527.733 308.904 527.654 309.719 527.474C310.19 527.363 310.654 527.22 311.107 527.045C311.382 526.961 311.642 526.83 311.875 526.656C312.048 526.529 312.176 526.345 312.239 526.133C312.302 525.922 312.296 525.695 312.222 525.487C312.142 525.309 312.025 525.152 311.879 525.028C311.733 524.905 311.562 524.817 311.379 524.773C311.102 524.715 310.819 524.693 310.537 524.708C310.049 524.725 309.563 524.79 309.087 524.903C308.279 525.081 307.505 525.397 306.794 525.838C305.555 526.604 305.059 527.357 305.134 527.422C305.208 527.486 305.84 526.928 307.042 526.344C307.734 525.998 308.468 525.753 309.223 525.617C309.666 525.539 310.113 525.496 310.561 525.487C311.045 525.487 311.441 525.552 311.516 525.786C311.59 526.019 311.516 525.916 311.416 526.032C311.242 526.158 311.05 526.255 310.846 526.318C310.442 526.49 310.028 526.638 309.607 526.759C308.856 526.96 308.088 527.086 307.315 527.136C306.562 527.112 305.808 527.142 305.059 527.227Z" fill="#263238"/>
<path d="M305.332 527.616C305.868 527.045 306.222 526.315 306.348 525.526C306.561 524.68 306.632 523.801 306.559 522.929C306.509 522.415 306.414 521.906 306.274 521.41C306.22 521.083 306.085 520.777 305.883 520.522C305.681 520.267 305.418 520.072 305.121 519.956C304.927 519.915 304.725 519.933 304.54 520.009C304.356 520.085 304.196 520.216 304.08 520.385C303.912 520.627 303.779 520.894 303.684 521.177C303.506 521.672 303.401 522.193 303.374 522.722C303.318 523.614 303.475 524.506 303.832 525.318C304.44 526.694 305.282 527.149 305.307 527.084C305.332 527.019 304.749 526.396 304.328 525.11C304.082 524.369 303.993 523.58 304.068 522.799C304.108 522.353 304.212 521.915 304.378 521.501C304.539 521.034 304.799 520.683 304.96 520.761C305.121 520.839 305.468 521.254 305.567 521.683C305.705 522.127 305.804 522.583 305.865 523.046C305.966 523.835 305.966 524.634 305.865 525.422C305.555 526.772 305.158 527.551 305.332 527.616Z" fill="#263238"/>
<path d="M455.6 514.49L446.157 501.572L445.674 500.91L429.564 513.439L444.435 530.576L443.889 547.922C435.599 550.168 434.347 554.504 434.347 554.504H451.585L467.249 522.903L455.6 514.49Z" fill="#21569A"/>
<path opacity="0.6" d="M467.298 522.89L451.634 554.491L434.397 554.504L436.342 551.79L450.358 550.973L464.807 521.099L467.298 522.89Z" fill="white"/>
<path d="M444.038 539.976C444.174 540.158 445.166 539.56 446.517 539.599C447.867 539.638 448.834 540.223 448.995 540.041C449.156 539.859 448.177 538.82 446.517 538.807C444.856 538.795 443.889 539.833 444.038 539.976Z" fill="#263238"/>
<path d="M444.323 535.666C444.496 535.795 445.252 534.731 446.628 534.445C448.003 534.16 449.106 534.822 449.218 534.64C449.329 534.458 449.082 534.25 448.598 533.978C447.947 533.625 447.201 533.514 446.482 533.665C445.764 533.817 445.116 534.22 444.645 534.809C444.311 535.263 444.236 535.614 444.323 535.666Z" fill="#263238"/>
<path d="M444.199 530.148C444.385 530.239 444.98 529.2 446.182 528.759C447.384 528.317 448.462 528.759 448.549 528.538C448.636 528.317 448.375 528.187 447.892 528.006C447.253 527.777 446.56 527.781 445.923 528.016C445.287 528.252 444.745 528.706 444.385 529.304C444.125 529.771 444.125 530.109 444.199 530.148Z" fill="#263238"/>
<path d="M439.589 525.864C439.787 525.941 440.271 524.916 441.349 524.189C442.427 523.462 443.48 523.345 443.493 523.124C443.505 522.903 442.254 522.605 440.928 523.527C439.602 524.448 439.379 525.838 439.589 525.864Z" fill="#263238"/>
<path d="M437.334 522.124C437.924 521.577 438.43 520.938 438.833 520.229L440.296 518.061C440.626 517.614 440.893 517.12 441.089 516.594C441.143 516.414 441.162 516.225 441.145 516.038C441.128 515.85 441.075 515.669 440.99 515.503C440.89 515.31 440.738 515.153 440.552 515.051C440.367 514.949 440.157 514.908 439.949 514.932C439.343 515.054 438.784 515.356 438.338 515.802C437.935 516.185 437.581 516.621 437.284 517.1C436.802 517.883 436.497 518.771 436.392 519.697C436.21 520.54 436.348 521.424 436.776 522.163C436.779 521.369 436.824 520.576 436.912 519.787C437.162 518.474 437.831 517.288 438.808 516.425C439.158 516.09 439.585 515.857 440.048 515.75C440.112 515.737 440.178 515.745 440.238 515.773C440.298 515.801 440.348 515.847 440.382 515.906C440.446 516.072 440.446 516.258 440.382 516.425C440.214 516.884 439.993 517.319 439.726 517.723L438.4 519.982C437.94 520.634 437.581 521.357 437.334 522.124Z" fill="#263238"/>
<path d="M436.689 522.696C436.776 522.696 436.689 521.735 435.772 520.657C435.138 519.935 434.296 519.45 433.374 519.276C432.452 519.103 431.501 519.25 430.667 519.696C430.578 519.774 430.507 519.871 430.46 519.981C430.413 520.092 430.39 520.212 430.394 520.333C430.403 520.542 430.477 520.743 430.605 520.904C430.778 521.13 430.988 521.324 431.224 521.475C431.613 521.76 432.028 522.004 432.464 522.202C433.182 522.547 433.947 522.77 434.731 522.864C435.445 523.035 436.192 522.962 436.863 522.657C436.863 522.527 436.045 522.592 434.818 522.319C434.106 522.157 433.419 521.895 432.773 521.54C432.406 521.336 432.058 521.097 431.733 520.826C431.564 520.718 431.413 520.582 431.286 520.424C431.2 520.268 431.224 520.307 431.286 520.268C431.437 520.169 431.606 520.102 431.782 520.073C431.994 520.019 432.209 519.985 432.426 519.969C432.842 519.932 433.26 519.963 433.666 520.06C434.355 520.22 434.994 520.559 435.525 521.047C436.342 521.917 436.603 522.747 436.689 522.696Z" fill="#263238"/>
<path opacity="0.6" d="M455.588 524.487C456.717 524.487 457.632 523.528 457.632 522.345C457.632 521.162 456.717 520.203 455.588 520.203C454.458 520.203 453.543 521.162 453.543 522.345C453.543 523.528 454.458 524.487 455.588 524.487Z" fill="white"/>
<path opacity="0.3" d="M431.088 515.166L434.397 518.97L448.313 504.519L446.38 501.884L431.088 515.166Z" fill="black"/>
<path d="M346.895 282.627C346.895 282.627 330.786 339.908 316.386 404.667C307.711 443.928 299.47 516.983 299.47 516.983L337.713 525.812L354.108 431.893L371.606 376.299C377.616 358.746 386.253 345.919 396.737 336.416C408.138 319.538 414.086 300.232 411.793 279.68L346.895 282.627Z" fill="#263238"/>
<path d="M343.748 291.754L358.036 415.093C359.424 426.998 361.345 438.462 369.065 447.329L426.925 519.216L455.588 492.263L394.259 404.42L404.916 280.589L344.913 291.313" fill="#263238"/>
<path d="M394.841 403.499C394.952 403.719 392.362 405.069 389.884 407.757C387.406 410.444 386.303 413.223 386.092 413.119C385.881 413.015 386.761 409.99 389.314 407.199C391.867 404.407 394.791 403.291 394.841 403.499Z" fill="#455A64"/>
<path d="M393.973 404.421C393.973 404.654 391.681 404.576 388.93 404.862C386.179 405.148 383.973 405.667 383.886 405.433C385.409 404.562 387.109 404.086 388.843 404.044C391.693 403.745 393.998 404.2 393.973 404.421Z" fill="#455A64"/>
<path d="M410.071 307.697C410.032 308.169 409.962 308.638 409.86 309.099C409.761 309.593 409.662 310.151 409.538 310.8C409.414 311.449 409.154 312.228 408.918 313.072C407.419 317.854 405.283 322.391 402.574 326.548C399.228 331.884 394.581 337.688 389.636 344.257C387.038 347.674 384.638 351.25 382.449 354.968C380.151 358.993 378.062 363.145 376.191 367.406C372.337 376.182 369.226 384.803 366.587 392.71C363.947 400.617 361.754 407.796 359.895 413.833C358.036 419.87 356.574 424.674 355.508 428.115C354.988 429.737 354.566 431.036 354.269 432.009C354.136 432.455 353.97 432.889 353.773 433.308C353.849 432.836 353.961 432.372 354.108 431.919L355.211 428.024L359.35 413.638C361.134 407.588 363.278 400.37 365.88 392.437C368.483 384.505 371.581 375.845 375.447 367.029C377.336 362.742 379.45 358.569 381.779 354.527C383.984 350.781 386.414 347.187 389.054 343.764C394.011 337.195 398.72 331.456 402.09 326.211C404.819 322.12 407.016 317.667 408.621 312.968C408.869 312.124 409.129 311.384 409.303 310.722C409.476 310.06 409.588 309.528 409.699 309.06C409.787 308.596 409.912 308.14 410.071 307.697Z" fill="#455A64"/>
<path d="M271.873 247.015L261.823 252.493L244.387 261.465C243.21 261.891 242.22 262.749 241.599 263.88L235.204 275.668H247.436L250.695 269.917C252.745 270.685 254.973 270.769 257.071 270.155C259.168 269.541 261.032 268.26 262.405 266.489L280.163 259.998L271.873 247.015Z" fill="#FFBF9D"/>
<path d="M388.62 102.306C389.329 100.727 390.495 99.4226 391.952 98.577C393.409 97.7313 395.082 97.3875 396.736 97.5944C398.39 97.8012 399.939 98.5483 401.165 99.7295C402.391 100.911 403.23 102.466 403.565 104.176C403.677 105.825 403.955 107.457 404.395 109.044C404.863 110.063 405.648 110.884 406.622 111.373C407.595 111.861 408.698 111.988 409.749 111.732C409.123 112.968 408.155 113.977 406.973 114.627C407.124 114.524 407.297 114.461 407.476 114.441C407.656 114.422 407.837 114.448 408.005 114.516C408.173 114.585 408.324 114.694 408.444 114.835C408.564 114.976 408.65 115.145 408.695 115.328C408.752 115.709 408.699 116.1 408.542 116.449C408.385 116.799 408.132 117.091 407.816 117.288C407.172 117.665 406.457 117.891 405.721 117.95C402.19 118.509 398.286 118.652 395.312 116.652C392.065 114.458 390.628 110.329 389.413 106.499" fill="#263238"/>
<path d="M354.789 91.5821C351.072 91.9197 347.974 94.7889 345.817 97.9827C343.661 101.177 342.162 104.838 339.906 107.954C338.221 110.278 336.077 112.381 335.247 115.159C333.921 119.599 336.25 124.715 334.404 128.934C333.351 131.323 331.145 132.946 330.054 135.309C328.691 138.256 329.311 141.8 330.141 144.916C330.556 147.163 331.616 149.224 333.177 150.824C334.584 151.834 336.204 152.471 337.899 152.68C350.599 155.127 363.711 153.427 375.459 147.811" fill="#263238"/>
<path d="M383.824 113.796C383.773 111.094 383.203 108.43 382.15 105.963C381.096 103.495 379.58 101.275 377.691 99.4342C375.802 97.5932 373.579 96.1689 371.154 95.246C368.729 94.3232 366.152 93.9205 363.575 94.062C353.277 94.6073 345.359 103.903 345.297 114.705C345.297 124.17 345.408 133.699 345.929 137.088C347.478 147.305 353.748 150.421 356.227 151.265C357.107 151.454 358.005 151.546 358.903 151.538C358.921 151.541 358.937 151.55 358.948 151.565C358.96 151.579 358.966 151.597 358.965 151.616L358.433 163.703C358.519 171.493 363.575 177.789 371.073 177.789C378.57 177.789 383.527 170.999 383.576 163.119L383.824 113.796Z" fill="#FFBF9D"/>
<path d="M348.977 120.002C348.977 120.43 349.136 120.842 349.421 121.15C349.705 121.458 350.093 121.637 350.502 121.651C350.701 121.668 350.902 121.644 351.092 121.578C351.282 121.513 351.457 121.408 351.608 121.27C351.758 121.132 351.88 120.963 351.967 120.774C352.054 120.585 352.103 120.38 352.113 120.171C352.119 119.741 351.965 119.326 351.682 119.015C351.399 118.704 351.011 118.522 350.601 118.509C350.4 118.493 350.199 118.519 350.008 118.586C349.817 118.653 349.641 118.759 349.49 118.898C349.338 119.037 349.215 119.206 349.127 119.396C349.039 119.585 348.988 119.791 348.977 120.002Z" fill="#263238"/>
<path d="M347.973 117.133C348.159 117.353 349.349 116.432 351.047 116.432C352.745 116.432 353.971 117.314 354.157 117.107C354.343 116.899 354.046 116.626 353.5 116.211C352.774 115.68 351.908 115.399 351.022 115.406C350.131 115.392 349.261 115.684 348.544 116.237C348.048 116.652 347.874 117.055 347.973 117.133Z" fill="#263238"/>
<path d="M365.509 120.002C365.502 120.43 365.657 120.844 365.94 121.153C366.224 121.461 366.612 121.641 367.021 121.651C367.22 121.668 367.421 121.644 367.611 121.578C367.801 121.513 367.976 121.408 368.127 121.27C368.277 121.132 368.399 120.963 368.486 120.774C368.573 120.585 368.622 120.38 368.631 120.171C368.638 119.741 368.483 119.326 368.201 119.015C367.918 118.704 367.529 118.522 367.12 118.509C366.92 118.493 366.719 118.519 366.529 118.586C366.339 118.653 366.163 118.759 366.013 118.899C365.863 119.038 365.741 119.207 365.654 119.397C365.567 119.586 365.518 119.792 365.509 120.002Z" fill="#263238"/>
<path d="M364.579 117.47C364.777 117.678 365.967 116.756 367.652 116.756C369.338 116.756 370.577 117.652 370.763 117.431C370.949 117.211 370.664 116.951 370.118 116.535C369.388 116.012 368.525 115.732 367.64 115.731C366.751 115.726 365.883 116.017 365.161 116.561C364.666 116.977 364.48 117.366 364.579 117.47Z" fill="#263238"/>
<path d="M358.445 130.596C357.558 130.297 356.637 130.122 355.706 130.077C355.272 130.077 354.864 129.934 354.789 129.635C354.761 129.183 354.86 128.731 355.074 128.337L356.313 124.896C358.086 120.002 359.374 115.964 359.176 115.899C357.774 118.708 356.589 121.63 355.632 124.637C355.198 125.844 354.802 127 354.393 128.103C354.122 128.646 354.043 129.271 354.17 129.869C354.233 130.027 354.329 130.169 354.451 130.283C354.574 130.398 354.719 130.483 354.876 130.531C355.119 130.597 355.368 130.636 355.619 130.648C356.559 130.759 357.509 130.741 358.445 130.596Z" fill="#263238"/>
<path d="M358.99 151.538C358.99 151.538 365.521 152.096 373.675 146.955C373.675 146.955 371.097 156.043 358.804 154.744L358.99 151.538Z" fill="#EB996E"/>
<path d="M359.164 134.854C359.487 134.434 359.906 134.105 360.383 133.899C360.859 133.692 361.378 133.615 361.89 133.673C362.262 133.71 362.624 133.825 362.954 134.01C363.283 134.195 363.575 134.447 363.811 134.751C364.035 135.047 364.169 135.409 364.193 135.786C364.218 136.164 364.132 136.541 363.947 136.867C363.676 137.186 363.32 137.413 362.924 137.517C362.528 137.621 362.112 137.598 361.729 137.451C360.934 137.175 360.2 136.734 359.573 136.153C359.382 136.013 359.218 135.837 359.089 135.633C359.029 135.535 358.996 135.42 358.996 135.302C358.996 135.185 359.029 135.07 359.089 134.971" fill="#EB996E"/>
<path d="M363.414 131.816C363.142 131.816 363.142 133.725 361.568 135.088C359.994 136.451 358.048 136.244 358.036 136.503C358.024 136.763 358.47 136.88 359.275 136.906C360.348 136.917 361.391 136.536 362.225 135.828C363.022 135.145 363.534 134.162 363.65 133.089C363.749 132.284 363.575 131.803 363.414 131.816Z" fill="#263238"/>
<path d="M363.823 114.367C363.984 114.848 365.67 114.614 367.653 114.874C369.635 115.133 371.246 115.678 371.506 115.25C371.618 115.042 371.345 114.588 370.701 114.133C369.838 113.561 368.861 113.201 367.846 113.082C366.83 112.963 365.802 113.087 364.839 113.445C364.108 113.757 363.749 114.133 363.823 114.367Z" fill="#263238"/>
<path d="M348.593 113.51C348.891 113.913 350.055 113.51 351.456 113.51C352.856 113.51 354.033 113.783 354.306 113.354C354.43 113.147 354.306 112.744 353.724 112.368C353.028 111.908 352.217 111.677 351.396 111.705C350.574 111.733 349.779 112.018 349.114 112.524C348.618 112.9 348.457 113.316 348.593 113.51Z" fill="#263238"/>
<path d="M343.054 112.485C345.532 115.419 351.728 112.485 355.248 109.616C357.46 110.657 359.972 110.754 362.251 109.886C364.53 109.018 366.397 107.254 367.454 104.968C370.081 107.564 374.443 105.928 375.633 102.371C376.823 98.8137 375.249 94.3345 372.584 91.7639C369.933 89.3878 366.557 88.0845 363.067 88.0897C359.041 87.8887 355.047 88.926 351.577 91.0737C348.107 93.2214 345.312 96.3858 343.537 100.177C341.877 103.877 341.232 108.616 343.054 112.472" fill="#263238"/>
<path d="M371.965 91.5821C379.041 88.9855 387.108 95.5419 388.595 100.865C391.173 110.096 390.12 111.459 392.387 115.73C393.874 118.509 397.989 120.924 399.823 123.767C401.843 126.779 402.598 132.284 401.991 135.919C401.483 138.983 398.868 147.708 398.868 147.708C398.868 147.708 388 149.006 382.263 148.357C380.792 148.281 379.359 147.835 378.087 147.058C376.847 146.228 378.582 142.436 378.186 140.995C377.033 136.906 373.712 134.945 373.997 130.687C374.369 125.039 378.434 124.195 377.566 118.535C377.108 115.562 372.275 111.939 371.482 109.057C370.689 106.175 367.615 96.1391 371.915 91.608" fill="#263238"/>
<path d="M390.045 109.187C389.859 109.187 389.983 107.266 389.624 104.994C389.264 102.721 388.608 100.943 388.781 100.865C389.631 102.026 390.143 103.419 390.256 104.877C390.594 106.304 390.521 107.804 390.045 109.187Z" fill="#21569A"/>
<path d="M389.388 106.019C389.388 106.019 389.141 106.201 388.632 106.331C387.912 106.518 387.168 106.592 386.427 106.551C385.316 106.493 384.226 106.21 383.217 105.721C381.984 105.114 380.896 104.227 380.032 103.124C379.239 102.039 378.333 101.051 377.331 100.177C376.493 99.5261 375.554 99.034 374.555 98.7227C373.606 98.4763 372.641 98.3027 371.667 98.2034C371.92 98.0823 372.196 98.0288 372.473 98.0476C373.21 98.0041 373.949 98.074 374.666 98.2553C375.745 98.5276 376.766 99.0074 377.678 99.6704C378.735 100.533 379.688 101.527 380.516 102.631C381.999 104.532 384.134 105.748 386.464 106.019C387.438 106.088 388.415 106.088 389.388 106.019Z" fill="#455A64"/>
<path d="M408.757 114.952C408.516 115.204 408.203 115.368 407.865 115.419C406.95 115.619 405.997 115.486 405.164 115.042C403.941 114.382 402.954 113.326 402.351 112.03C401.607 110.641 401.111 108.979 400.417 107.395C399.864 105.882 398.832 104.612 397.493 103.799C396.353 103.245 395.063 103.13 393.85 103.475C392.719 103.845 391.705 104.526 390.913 105.448C391.01 105.112 391.19 104.807 391.433 104.565C392.044 103.841 392.832 103.306 393.713 103.02C395.034 102.568 396.468 102.642 397.741 103.228C399.235 104.078 400.391 105.459 401 107.123C401.743 108.772 402.239 110.407 402.871 111.745C403.388 112.954 404.255 113.963 405.35 114.627C406.1 115.078 406.968 115.269 407.828 115.172C408.41 115.081 408.72 114.9 408.757 114.952Z" fill="#455A64"/>
<path d="M389.413 104.851C389.413 104.851 389.103 105.006 388.521 104.954C387.687 104.851 386.897 104.505 386.241 103.955C385.289 103.15 384.498 102.158 383.911 101.034C383.251 99.7061 382.462 98.4531 381.557 97.2945C380.67 96.3298 379.596 95.5755 378.407 95.0828C377.219 94.5901 375.943 94.3703 374.667 94.4383C373.594 94.5469 372.534 94.7732 371.506 95.1134C371.506 95.1134 371.742 94.8797 372.262 94.62C373.013 94.2721 373.812 94.053 374.629 93.9709C375.995 93.8192 377.375 93.9978 378.664 94.493C379.953 94.9882 381.117 95.7867 382.065 96.8271C382.999 98.0272 383.801 99.3337 384.456 100.722C384.977 101.804 385.687 102.773 386.551 103.578C387.357 104.302 388.357 104.746 389.413 104.851Z" fill="#455A64"/>
<path d="M392.524 149.032C392.524 149.032 392.97 148.318 393.763 147.02C394.825 145.187 395.658 143.219 396.241 141.164C397.122 138.139 397.229 134.924 396.551 131.842C396.141 129.974 395.382 128.21 394.319 126.65C393.256 125.091 391.909 123.767 390.355 122.754C388.682 121.716 386.836 121.015 385.2 119.963C383.573 118.971 382.275 117.48 381.482 115.692C380.825 114.109 380.294 112.472 379.896 110.797C379.547 109.368 379.07 107.977 378.471 106.642C378.064 105.677 377.465 104.813 376.715 104.108C375.966 103.403 375.081 102.873 374.121 102.553C373.401 102.363 372.653 102.315 371.915 102.41C371.915 102.41 372.101 102.306 372.485 102.228C373.046 102.109 373.623 102.109 374.183 102.228C375.205 102.518 376.155 103.037 376.966 103.75C377.777 104.463 378.43 105.352 378.88 106.357C379.517 107.708 380.028 109.121 380.404 110.576C380.814 112.214 381.358 113.813 382.027 115.354C382.77 117.022 383.986 118.409 385.51 119.327C387.071 120.339 388.918 121.028 390.665 122.118C392.288 123.185 393.691 124.581 394.791 126.224C395.892 127.867 396.667 129.725 397.072 131.687C397.745 134.874 397.587 138.193 396.613 141.294C395.988 143.372 395.078 145.345 393.912 147.149C393.608 147.641 393.277 148.113 392.92 148.565C392.685 148.889 392.548 149.045 392.524 149.032Z" fill="#455A64"/>
<path d="M338.964 152.174C338.964 152.174 338.828 152.07 338.63 151.81C338.343 151.436 338.082 151.042 337.849 150.629C336.982 149.091 336.417 147.387 336.189 145.617C335.801 142.975 336.145 140.271 337.18 137.828C337.836 136.439 338.581 135.099 339.411 133.816C340.286 132.502 340.835 130.98 341.009 129.389C341.22 126.117 339.77 123.066 339.572 120.08C339.261 117.44 339.589 114.762 340.526 112.29C341.169 110.64 342.141 109.153 343.376 107.928C343.704 107.592 344.056 107.284 344.429 107.006C344.553 106.896 344.691 106.804 344.838 106.733C344.838 106.733 344.355 107.214 343.599 108.109C342.476 109.378 341.593 110.858 340.997 112.472C340.157 114.878 339.885 117.462 340.204 120.002C340.405 121.51 340.703 123.002 341.096 124.468C341.56 126.083 341.765 127.768 341.703 129.454C341.515 131.147 340.932 132.765 340.005 134.166C339.183 135.414 338.438 136.715 337.775 138.061C336.757 140.391 336.38 142.972 336.684 145.513C336.877 147.233 337.36 148.904 338.109 150.447C338.617 151.59 339.014 152.109 338.964 152.174Z" fill="#455A64"/>
<path d="M361.667 89.44C360.096 89.6498 358.542 89.984 357.02 90.4397C353.385 91.6584 350.238 94.1058 348.073 97.3985C346.059 100.795 344.954 104.696 344.875 108.694C344.89 110.353 345.039 112.008 345.322 113.64C345.106 113.236 344.955 112.798 344.875 112.342C344.584 111.141 344.431 109.907 344.417 108.668C344.364 104.541 345.443 100.485 347.527 96.9831C349.763 93.559 353.074 91.0644 356.883 89.9333C358.023 89.5939 359.195 89.3935 360.378 89.3361C360.81 89.3013 361.245 89.3363 361.667 89.44Z" fill="#455A64"/>
<path d="M353.315 106.084C353.146 105.735 353.041 105.357 353.005 104.968C352.82 103.906 352.775 102.823 352.869 101.748C353.003 99.9593 353.484 98.2184 354.284 96.6323C355.084 95.0461 356.186 93.6482 357.521 92.5245C358.856 91.4008 360.396 90.5752 362.047 90.0983C363.697 89.6214 365.424 89.5034 367.12 89.7515C368.137 89.8838 369.134 90.1589 370.081 90.5694C370.443 90.6922 370.78 90.8861 371.073 91.1407C369.768 90.7104 368.428 90.4062 367.07 90.2319C363.786 89.8709 360.499 90.8841 357.925 93.0508C355.351 95.2176 353.698 98.3622 353.327 101.8C353.202 103.225 353.198 104.658 353.315 106.084Z" fill="#455A64"/>
<path d="M409.749 290.624L396.353 236.368L400.988 215.141L407.667 175.296C407.667 175.296 401.533 166.507 385.646 165.663L384.58 157.601L357.379 158.6L356.871 166.221C352.832 167.272 349.049 169.202 345.77 171.887C342.49 174.571 339.787 177.949 337.837 181.801L318.517 219.867L265.677 247.573L272.654 264.723C272.654 264.723 325.692 243.665 330.178 241.601C333.165 240.237 336.374 234.473 339.212 228.293C341.331 238.913 343.525 247.326 343.525 247.326L343.066 288.95L409.749 290.624Z" fill="#21569A"/>
<path d="M386.055 180.49C386.055 180.49 385.361 180.697 384.134 181.087C382.907 181.476 381.135 182.061 378.954 182.84C376.773 183.619 374.196 184.566 371.209 185.306C369.635 185.728 368.012 185.916 366.388 185.865C364.637 185.645 362.948 185.044 361.432 184.099C359.87 183.229 358.433 182.255 356.97 181.502C355.576 180.752 354.104 180.173 352.583 179.776C349.996 179.099 347.313 178.923 344.665 179.256C342.224 179.635 339.841 180.347 337.576 181.373C337.707 181.253 337.853 181.152 338.01 181.074C338.437 180.811 338.88 180.577 339.336 180.373C341.016 179.596 342.787 179.059 344.603 178.776C348.929 178.11 353.346 178.853 357.255 180.905C358.755 181.697 360.205 182.671 361.741 183.502C363.171 184.397 364.761 184.976 366.413 185.203C367.973 185.254 369.532 185.084 371.048 184.696C373.997 184.008 376.6 183.086 378.793 182.385C380.986 181.684 382.783 181.087 384.047 180.827C384.679 180.672 385.175 180.581 385.51 180.529C385.687 180.478 385.872 180.465 386.055 180.49Z" fill="#FAFAFA"/>
<path d="M394.246 208.027C394.246 208.105 393.205 207.832 391.297 207.728C388.612 207.655 385.934 208.036 383.366 208.858C379.563 210.122 375.866 211.711 372.312 213.609C367.935 216.017 363.241 217.728 358.383 218.686C357.09 218.875 355.784 218.949 354.479 218.906C353.203 218.851 351.937 218.655 350.7 218.322C348.392 217.63 346.199 216.575 344.194 215.193C340.365 212.597 337.13 210 333.884 208.922C331.391 207.883 328.637 207.751 326.064 208.546C325.142 208.908 324.265 209.383 323.449 209.961C323.625 209.758 323.82 209.576 324.032 209.416C324.628 208.951 325.282 208.575 325.977 208.299C328.601 207.383 331.446 207.443 334.032 208.468C337.378 209.546 340.712 212.181 344.516 214.661C346.472 215.998 348.612 217.013 350.861 217.673C352.053 217.992 353.274 218.179 354.504 218.231C355.772 218.274 357.041 218.2 358.296 218.011C363.089 217.061 367.727 215.39 372.064 213.051C375.647 211.165 379.379 209.606 383.217 208.39C385.839 207.597 388.573 207.285 391.297 207.468C392.031 207.528 392.76 207.645 393.478 207.819C393.739 207.865 393.996 207.935 394.246 208.027Z" fill="#FAFAFA"/>
<path d="M344.653 189.045C344.653 189.045 344.653 189.24 344.529 189.604C344.405 189.967 344.281 190.487 344.058 191.162C343.624 192.46 342.93 194.433 342.038 196.783C341.145 199.133 340.055 201.977 339.076 205.092C338.56 206.746 338.146 208.433 337.837 210.143C337.47 211.955 337.329 213.81 337.415 215.661C337.662 219.27 338.167 222.855 338.927 226.385C339.572 229.656 340.253 232.577 340.823 235.044C341.393 237.511 341.852 239.497 342.137 240.887C342.286 241.575 342.385 242.185 342.447 242.484C342.498 242.669 342.519 242.862 342.509 243.055C342.253 242.371 342.046 241.668 341.889 240.952L340.365 235.2C339.745 232.746 339.014 229.825 338.332 226.553C337.529 222.999 337.002 219.382 336.759 215.739C336.667 213.831 336.817 211.918 337.205 210.052C337.512 208.321 337.926 206.612 338.444 204.937C339.46 201.743 340.613 198.964 341.554 196.641C342.496 194.317 343.252 192.421 343.76 191.11C344.009 190.4 344.307 189.71 344.653 189.045Z" fill="#263238"/>
<path d="M314.391 248.079C314.068 248.127 313.74 248.086 313.436 247.962C312.603 247.689 311.829 247.248 311.156 246.664C310.151 245.804 309.278 244.789 308.566 243.652C307.762 242.214 307.2 240.642 306.906 239.004C306.605 237.433 306.191 235.888 305.667 234.382C305.2 233.184 304.494 232.104 303.597 231.214C302.747 230.418 301.706 229.879 300.586 229.656C300.586 229.656 300.92 229.552 301.54 229.656C302.412 229.837 303.223 230.253 303.894 230.864C304.896 231.754 305.689 232.873 306.212 234.135C306.804 235.659 307.26 237.237 307.575 238.848C307.859 240.414 308.382 241.922 309.124 243.314C309.772 244.424 310.574 245.426 311.503 246.287C312.116 246.883 312.814 247.374 313.573 247.742C314.068 247.962 314.403 248.014 314.391 248.079Z" fill="#FAFAFA"/>
<path d="M284.116 260.179C284.005 260.179 284.116 259.037 283.844 257.219C283.532 254.858 282.928 252.549 282.047 250.351C281.189 248.148 280.056 246.074 278.676 244.184C277.611 242.73 276.793 241.977 276.867 241.886C277.707 242.394 278.443 243.069 279.036 243.873C280.549 245.729 281.766 247.829 282.642 250.092C283.556 252.34 284.113 254.73 284.29 257.167C284.412 258.174 284.354 259.196 284.116 260.179Z" fill="#FAFAFA"/>
<path d="M396.526 235.875C396.526 235.875 395.746 235.875 394.345 236.057C392.362 236.258 390.401 236.645 388.484 237.212C386.005 237.9 383.229 238.978 380.082 240.172C376.675 241.557 373.147 242.588 369.548 243.249C362.972 244.302 356.252 243.696 349.944 241.484C348.044 240.806 346.196 239.977 344.417 239.004C343.785 238.653 343.314 238.355 342.992 238.16C342.67 237.965 342.509 237.797 342.509 237.797C343.189 238.081 343.855 238.401 344.504 238.757C346.312 239.63 348.17 240.384 350.068 241.016C356.343 243.077 362.985 243.61 369.486 242.574C373.046 241.915 376.539 240.911 379.921 239.575C383.068 238.42 385.931 237.368 388.409 236.732C390.354 236.196 392.348 235.879 394.358 235.784C394.902 235.749 395.449 235.749 395.993 235.784C396.174 235.789 396.353 235.82 396.526 235.875Z" fill="#FAFAFA"/>
<g opacity="0.3">
<path d="M358.792 166.247C362.372 168.347 366.403 169.46 370.507 169.48C374.61 169.501 378.651 168.428 382.25 166.364C374.386 166.771 366.512 166.801 358.631 166.455" fill="black"/>
</g>
<path d="M385.46 165.495C385.12 165.676 384.757 165.808 384.382 165.884C383.387 166.187 382.372 166.413 381.346 166.559C377.961 167.019 374.542 167.141 371.135 166.923C367.144 166.741 363.563 166.494 360.961 166.481C358.358 166.468 356.747 166.559 356.747 166.481C357.108 166.357 357.483 166.287 357.863 166.274C358.594 166.17 359.647 166.092 360.961 166.04C363.575 165.936 367.157 166.105 371.159 166.286C374.538 166.498 377.926 166.441 381.296 166.118C383.874 165.793 385.435 165.378 385.46 165.495Z" fill="#263238"/>
<path d="M368.78 225.333C369.511 226.852 412.376 262.672 424.669 272.916C425.096 273.273 425.452 273.715 425.716 274.217C425.98 274.718 426.147 275.27 426.207 275.839C426.266 276.409 426.218 276.985 426.065 277.535C425.912 278.085 425.656 278.597 425.313 279.044L396.712 316.24C396.028 317.134 395.034 317.708 393.948 317.837C392.861 317.966 391.77 317.639 390.913 316.928L336.127 271.487C335.687 271.123 335.322 270.668 335.055 270.151C334.788 269.635 334.624 269.066 334.573 268.481C334.522 267.896 334.585 267.306 334.758 266.747C334.932 266.188 335.212 265.672 335.581 265.23L368.78 225.333Z" fill="#263238"/>
<path d="M368.123 218.984C368.879 220.555 414.78 258.881 425.189 267.554C425.735 268.014 426.084 268.683 426.161 269.413C426.237 270.142 426.035 270.874 425.598 271.449L395.126 311.099C394.686 311.67 394.048 312.036 393.351 312.116C392.655 312.197 391.956 311.985 391.408 311.527L334.231 264.035C333.949 263.802 333.716 263.512 333.545 263.183C333.374 262.853 333.269 262.49 333.235 262.116C333.202 261.743 333.241 261.366 333.35 261.008C333.459 260.651 333.636 260.32 333.871 260.036L368.123 218.984Z" fill="#21569A"/>
<path opacity="0.4" d="M368.123 218.984C368.879 220.568 415.66 259.608 425.474 267.8C425.71 267.996 425.905 268.239 426.05 268.514C426.195 268.79 426.287 269.093 426.319 269.406C426.351 269.718 426.324 270.035 426.238 270.337C426.153 270.638 426.011 270.919 425.821 271.163L394.841 311.41C394.462 311.904 393.911 312.221 393.31 312.291C392.709 312.362 392.105 312.18 391.631 311.787L333.884 263.75C333.64 263.549 333.437 263.299 333.289 263.014C333.14 262.729 333.049 262.416 333.02 262.093C332.991 261.769 333.025 261.444 333.12 261.135C333.215 260.826 333.37 260.54 333.574 260.296L368.123 218.984Z" fill="black"/>
<path d="M372.857 219.686C387.393 232.37 426.689 265.126 426.689 265.126L396.229 304.763C395.347 305.901 394.074 306.632 392.683 306.797C391.293 306.962 389.896 306.549 388.794 305.646L335.928 261.737C335.362 261.266 334.893 260.679 334.549 260.012C334.205 259.346 333.993 258.613 333.927 257.858C333.861 257.103 333.942 256.342 334.165 255.621C334.387 254.9 334.747 254.234 335.222 253.662L362.819 220.568C364.055 219.084 365.794 218.162 367.668 217.997C369.541 217.832 371.402 218.438 372.857 219.686Z" fill="#455A64"/>
<path d="M409.253 250.52L410.021 256.129L423.95 268.657L426.689 265.087L409.253 250.52Z" fill="#FAFAFA"/>
<path d="M368.532 305.879L381.668 294.402L375.286 278.485L366.438 286.898C364.363 287.476 362.244 287.862 360.105 288.054C359.005 288.169 357.893 288.081 356.821 287.794C355.481 287.498 354.184 287.013 352.968 286.353C351.914 285.613 350.563 286.613 350.96 287.729C351.357 288.846 354.207 290.949 358.222 291.624C361.828 292.208 357.751 295 355.434 296.48C355.229 296.61 355.078 296.814 355.01 297.054C354.941 297.294 354.96 297.552 355.062 297.778C356.264 300.634 360.998 309.995 368.532 305.879Z" fill="#FFBF9D"/>
<path d="M389.376 193.187C388.397 178.906 401.049 164.417 408.435 176.426C416.54 189.591 434.298 220.568 438.672 241.601C440.717 251.403 384.63 298.142 381.172 301.024C381.073 301.115 380.169 299.817 380.094 299.726L366.227 284.665C366.165 284.574 369.486 281.017 369.573 280.926L409.067 240.393C409.094 240.354 409.109 240.306 409.109 240.257C409.109 240.208 409.094 240.16 409.067 240.121C407.741 237.589 390.305 204.262 389.376 193.525V193.187Z" fill="#21569A"/>
<path d="M420.58 240.12C420.493 240.38 417.878 239.51 414.545 239.432C411.211 239.355 408.559 240.017 408.485 239.744C408.41 239.471 411.075 238.368 414.582 238.446C418.089 238.524 420.58 239.9 420.58 240.12Z" fill="#263238"/>
<path d="M418.101 244.691C417.89 244.872 416.292 243.016 413.727 241.653C411.161 240.289 408.77 239.952 408.832 239.666C408.894 239.381 411.397 239.316 414.136 240.822C416.874 242.328 418.287 244.574 418.101 244.691Z" fill="#263238"/>
<path d="M409.067 240.393C408.895 240.156 408.75 239.899 408.633 239.627L407.506 237.394L403.491 229.124C400.12 222.048 395.523 212.389 390.454 201.717C387.799 196.752 386.209 191.241 385.795 185.566C385.448 180.373 386.885 175.452 389.512 172.583C390.689 171.262 392.163 170.271 393.8 169.701C395.026 169.263 396.326 169.1 397.617 169.221C398.429 169.293 399.224 169.504 399.971 169.844C400.232 169.961 400.405 170.09 400.529 170.155C400.653 170.22 400.715 170.272 400.702 170.285C399.72 169.837 398.673 169.565 397.604 169.48C396.34 169.4 395.073 169.599 393.887 170.064C392.325 170.646 390.924 171.623 389.81 172.908C387.331 175.751 385.943 180.49 386.315 185.592C386.791 191.167 388.396 196.571 391.024 201.444C396.043 212.142 400.579 221.841 403.9 228.942C405.498 232.422 406.799 235.252 407.729 237.303L408.745 239.601C408.871 239.857 408.979 240.121 409.067 240.393Z" fill="#263238"/>
<g opacity="0.3">
<path d="M386.476 185.164C385.039 197.822 383.998 210.623 385.113 223.308C385.708 229.994 392.462 238.368 397.778 242.12L396.353 236.368C397.134 232.642 399.736 220.867 399.736 220.867C399.736 220.867 394.891 210.818 392.957 207.144C389.24 200.424 387.024 192.909 386.476 185.164Z" fill="black"/>
</g>
<path d="M434.719 229.007C434.719 229.007 434.446 229.332 433.864 229.838C433.579 230.085 433.207 230.37 432.761 230.682C432.315 230.994 431.819 231.357 431.237 231.708C429.88 232.545 428.463 233.27 426.999 233.876C425.204 234.613 423.356 235.199 421.472 235.628C419.586 236.043 417.671 236.295 415.747 236.381C414.169 236.445 412.59 236.367 411.025 236.148C410.424 236.073 409.828 235.96 409.241 235.81C408.795 235.728 408.356 235.611 407.927 235.46C407.543 235.378 407.174 235.229 406.837 235.018C406.837 234.901 408.448 235.408 411.087 235.667C412.628 235.818 414.177 235.852 415.722 235.771C417.608 235.633 419.483 235.365 421.335 234.966C423.188 234.54 425.009 233.98 426.788 233.292C428.235 232.719 429.647 232.051 431.014 231.292C433.344 230.007 434.645 228.916 434.719 229.007Z" fill="#FAFAFA"/>
<path d="M411.694 272.513C411.187 271.33 410.773 270.106 410.455 268.852C409.586 265.885 408.496 262.994 407.196 260.205C406.468 258.686 405.61 257.238 404.631 255.882C403.832 254.786 402.903 253.8 401.867 252.948C400.083 251.507 398.745 250.949 398.807 250.832C399.14 250.88 399.463 250.99 399.761 251.156C400.597 251.538 401.394 252.008 402.14 252.558C403.25 253.391 404.247 254.378 405.102 255.493C406.131 256.861 407.024 258.335 407.766 259.894C409.095 262.716 410.142 265.674 410.889 268.722C411.279 269.954 411.549 271.224 411.694 272.513Z" fill="#FAFAFA"/>
<path d="M397.034 286.859C395.9 286.586 394.807 286.149 393.788 285.561C391.268 284.295 388.925 282.674 386.823 280.744C384.721 278.812 382.875 276.594 381.333 274.149C380.646 273.17 380.103 272.09 379.722 270.942C379.809 270.942 380.466 272.085 381.718 273.876C384.941 278.558 389.141 282.408 393.998 285.133C395.795 286.223 397.034 286.756 397.034 286.859Z" fill="#FAFAFA"/>
<path d="M410.938 180.671C410.646 180.881 410.318 181.031 409.972 181.113C409.062 181.408 408.129 181.616 407.184 181.736C404.792 182.113 401.446 181.892 397.852 182.1C396.164 182.175 394.495 182.503 392.895 183.073C391.603 183.55 390.406 184.272 389.363 185.202C388.43 186.103 387.647 187.16 387.046 188.331C387.069 187.96 387.176 187.6 387.356 187.28C387.769 186.365 388.346 185.541 389.054 184.852C390.102 183.819 391.336 183.016 392.685 182.489C394.327 181.872 396.048 181.514 397.79 181.424C401.508 181.217 404.767 181.502 407.122 181.256C409.476 181.009 410.901 180.542 410.938 180.671Z" fill="#FAFAFA"/>
<path d="M423.74 204.833C423.648 205.227 423.46 205.589 423.194 205.884C422.532 206.725 421.68 207.381 420.716 207.793C419.276 208.349 417.763 208.669 416.23 208.741C414.401 208.88 412.58 209.127 410.777 209.481C407.503 210.154 404.311 211.208 401.26 212.623C398.918 213.713 397.542 214.557 397.542 214.466C397.808 214.186 398.113 213.949 398.447 213.765C399.311 213.19 400.205 212.666 401.124 212.194C404.158 210.624 407.38 209.488 410.703 208.818C414.594 207.936 418.262 208.338 420.617 207.338C421.865 206.833 422.949 205.963 423.74 204.833Z" fill="#FAFAFA"/>
<path d="M117.478 75.756C120.013 75.9596 122.483 76.6982 124.738 77.9276C126.993 79.157 128.988 80.8517 130.602 82.9097C133.79 87.045 136.033 91.8903 137.157 97.0741C139.636 106.98 137.963 118.652 135.187 128.467C124.988 124.572 118.78 113.069 115.979 107.045C111.555 97.5026 109.076 77.4698 117.54 75.756" fill="#21569A"/>
<path d="M149.735 140.593C148.226 138.085 147.374 135.204 147.265 132.241C147.156 129.278 147.795 126.338 149.116 123.715C150.486 121.12 152.336 118.837 154.557 116.998C156.778 115.159 159.326 113.801 162.053 113.004C164.532 112.225 167.456 111.914 169.612 113.459C170.576 114.246 171.323 115.286 171.778 116.475C172.233 117.663 172.38 118.956 172.202 120.223C171.799 122.757 170.764 125.135 169.203 127.117C164.172 134.128 158.05 139.944 149.735 140.593Z" fill="#21569A"/>
<g opacity="0.3">
<path d="M149.735 140.593C148.226 138.085 147.374 135.204 147.265 132.241C147.156 129.278 147.795 126.338 149.116 123.715C150.486 121.12 152.336 118.837 154.557 116.998C156.778 115.159 159.326 113.801 162.053 113.004C164.531 112.225 167.456 111.914 169.612 113.459C170.576 114.246 171.323 115.287 171.778 116.475C172.233 117.663 172.38 118.956 172.202 120.223C171.799 122.757 170.764 125.135 169.203 127.117C164.172 134.128 158.05 139.944 149.735 140.593Z" fill="white"/>
</g>
<path d="M138.855 151.096C135.679 145.802 131.345 141.377 126.212 138.186C121.079 134.996 115.294 133.133 109.337 132.751C106.3 132.595 102.682 133.206 101.393 136.075C100.104 138.944 101.963 142.281 104.07 144.579C108.546 149.278 114.249 152.484 120.461 153.794C126.673 155.104 133.116 154.459 138.979 151.94" fill="#21569A"/>
<g opacity="0.3">
<path d="M138.855 151.096C135.679 145.802 131.345 141.377 126.212 138.186C121.078 134.996 115.294 133.133 109.336 132.751C106.3 132.596 102.682 133.206 101.393 136.075C100.104 138.944 101.963 142.281 104.07 144.579C108.546 149.278 114.249 152.484 120.461 153.794C126.673 155.104 133.116 154.459 138.979 151.94" fill="white"/>
</g>
<path d="M149.822 174.609C149.62 173.923 149.479 173.218 149.401 172.505C149.178 171.142 148.868 169.169 148.558 166.728C147.624 160.347 147.487 153.866 148.149 147.448C148.863 140.98 151.216 134.829 154.965 129.635C156.117 128.088 157.444 126.693 158.918 125.481C159.315 125.147 159.729 124.835 160.157 124.546C160.3 124.431 160.459 124.339 160.628 124.273C158.669 125.948 156.89 127.842 155.324 129.921C151.753 135.118 149.502 141.18 148.781 147.539C148.143 153.906 148.222 160.329 149.016 166.676C149.277 169.026 149.487 170.986 149.648 172.466C149.755 173.175 149.813 173.891 149.822 174.609Z" fill="#263238"/>
<path d="M120.688 90.8422C120.838 91.1047 120.971 91.378 121.084 91.6601C121.345 92.2703 121.692 93.0623 122.113 94.062C122.993 96.1392 124.232 99.1772 125.744 102.942C128.755 110.459 132.783 120.911 136.984 132.557C141.185 144.202 144.766 154.835 147.257 162.573C148.496 166.468 149.487 169.571 150.144 171.739C150.442 172.778 150.689 173.622 150.875 174.258C150.982 174.542 151.057 174.838 151.098 175.141C150.956 174.873 150.839 174.59 150.751 174.297C150.541 173.674 150.256 172.856 149.896 171.83C149.153 169.61 148.099 166.52 146.823 162.742C144.221 155.056 140.627 144.449 136.389 132.816C132.151 121.183 128.222 110.745 125.323 103.137L121.877 94.1788C121.506 93.1661 121.196 92.3482 120.96 91.725C120.838 91.4424 120.747 91.1462 120.688 90.8422Z" fill="#263238"/>
<path d="M114.17 140.957C114.824 140.943 115.479 140.982 116.128 141.074C116.89 141.135 117.647 141.247 118.395 141.411C119.402 141.581 120.399 141.811 121.382 142.099L123.092 142.593C123.687 142.774 124.331 143.034 124.914 143.255C126.242 143.765 127.545 144.346 128.817 144.994C134.686 147.989 139.821 152.355 143.824 157.757C144.704 159.055 145.571 160.21 146.303 161.418C146.65 162.015 147.009 162.573 147.294 163.145L148.112 164.806C148.657 165.845 149.004 166.858 149.351 167.715C149.655 168.453 149.912 169.212 150.119 169.987C150.342 170.634 150.516 171.298 150.64 171.973C150.491 171.973 149.772 169.182 147.691 165.027C147.418 164.508 147.145 163.963 146.848 163.404C146.55 162.846 146.191 162.314 145.832 161.73C145.065 160.491 144.238 159.295 143.353 158.146C139.354 152.871 134.304 148.574 128.557 145.553C127.219 144.904 125.967 144.254 124.715 143.787C124.108 143.553 123.476 143.281 122.943 143.086L121.258 142.554C116.97 141.268 114.145 141.113 114.17 140.957Z" fill="#263238"/>
<path d="M130.416 165.014H167.134V187.527C167.134 191.758 165.529 195.817 162.673 198.809C159.817 201.802 155.943 203.483 151.904 203.483H145.646C141.607 203.483 137.733 201.802 134.877 198.809C132.02 195.817 130.416 191.758 130.416 187.527V165.014Z" fill="#21569A"/>
<path opacity="0.3" d="M130.416 165.014H167.134V187.527C167.134 191.758 165.529 195.817 162.673 198.809C159.817 201.802 155.943 203.483 151.904 203.483H145.646C141.607 203.483 137.733 201.802 134.877 198.809C132.02 195.817 130.416 191.758 130.416 187.527V165.014Z" fill="black"/>
<path d="M155.225 165.092C155.145 165.494 155.002 165.88 154.804 166.235C154.337 167.233 153.789 168.189 153.168 169.091C151.124 172.102 148.416 174.552 145.275 176.231C142.134 177.911 138.651 178.77 135.125 178.737C134.066 178.736 133.008 178.641 131.965 178.452C131.575 178.412 131.194 178.307 130.837 178.14C130.837 178.023 132.473 178.361 135.112 178.27C138.547 178.163 141.916 177.258 144.976 175.622C148.036 173.985 150.711 171.657 152.809 168.805C154.419 166.65 155.113 165.092 155.225 165.092Z" fill="#FAFAFA"/>
<path d="M166.787 191.058C166.363 191.046 165.944 190.958 165.548 190.798C164.491 190.444 163.477 189.965 162.524 189.37C159.315 187.4 156.884 184.293 155.668 180.611C154.453 176.928 154.533 172.912 155.894 169.285C156.297 168.204 156.812 167.172 157.431 166.208C157.645 165.846 157.908 165.518 158.211 165.235C157.492 166.594 156.862 168.004 156.328 169.454C155.133 172.985 155.12 176.836 156.291 180.375C157.462 183.914 159.747 186.931 162.772 188.929C164.062 189.735 165.403 190.446 166.787 191.058Z" fill="#FAFAFA"/>
<path d="M157.381 202.431C157.347 200.51 157.089 198.6 156.613 196.745C156.016 194.767 155.088 192.917 153.874 191.279C152.383 189.282 150.54 187.603 148.446 186.332C144.574 184.062 140.109 183.152 135.707 183.736C133.887 184.052 132.086 184.486 130.317 185.034C130.746 184.765 131.204 184.547 131.68 184.385C132.963 183.889 134.292 183.537 135.645 183.333C140.159 182.575 144.784 183.44 148.769 185.787C150.94 187.111 152.836 188.877 154.345 190.98C155.578 192.691 156.494 194.629 157.047 196.693C157.413 198.079 157.585 199.513 157.555 200.951C157.555 201.45 157.497 201.947 157.381 202.431Z" fill="#FAFAFA"/>
<path d="M162.611 203.483H47.0284V554.971H162.611V203.483Z" fill="#263238"/>
<path d="M224.659 203.483H98.1093V554.971H224.659V203.483Z" fill="#455A64"/>
<path d="M219.008 303.244H106.226V375.806H219.008V303.244Z" fill="#455A64"/>
<path d="M144.233 474.594H182.86V476.424C182.868 476.799 182.804 477.171 182.673 477.519C182.541 477.866 182.344 478.183 182.093 478.45C181.842 478.716 181.543 478.927 181.212 479.07C180.882 479.212 180.528 479.284 180.171 479.281H146.91C146.203 479.281 145.526 478.986 145.026 478.463C144.526 477.94 144.245 477.23 144.245 476.489V474.659L144.233 474.594Z" fill="#263238"/>
<path d="M218.76 474.594C218.76 474.594 218.76 475.022 218.76 475.892C218.76 476.762 218.76 478.021 218.76 479.657C218.76 483.007 218.76 487.888 218.76 494.159C218.76 506.791 218.847 524.955 218.896 547.195V547.454H218.648L105.879 547.532H105.495V547.195C105.495 521.514 105.495 497.015 105.495 474.723V474.412H105.792L187.16 474.49H210.383H216.579H218.153H218.673H218.116H216.505H210.308L187.011 474.594L105.842 474.814L106.139 474.503C106.139 496.795 106.139 521.242 106.139 546.974L105.817 546.636L218.586 546.701L218.326 546.974C218.326 524.799 218.438 506.727 218.463 494.107C218.463 487.81 218.463 482.903 218.524 479.54C218.524 477.878 218.524 476.606 218.524 475.723C218.735 475.048 218.76 474.594 218.76 474.594Z" fill="#263238"/>
<path d="M181.36 492.316H147.777V501.819H181.36V492.316Z" fill="#E0E0E0"/>
<path d="M219.008 384.011H106.226V456.573H219.008V384.011Z" fill="#455A64"/>
<path d="M144.084 393.424H182.711V395.255C182.711 395.995 182.43 396.705 181.931 397.228C181.431 397.752 180.753 398.046 180.047 398.046H146.712C146.005 398.046 145.327 397.752 144.828 397.228C144.328 396.705 144.047 395.995 144.047 395.255V393.424H144.084Z" fill="#263238"/>
<path d="M219.826 393.424C219.826 393.424 219.826 393.852 219.826 394.722C219.826 395.592 219.826 396.851 219.826 398.487C219.826 401.837 219.826 406.719 219.888 412.989C219.888 425.622 219.974 443.785 220.024 466.025V466.285H219.826L107.056 466.298H106.672V465.96C106.672 440.28 106.672 415.781 106.672 393.489V393.177H106.97L188.337 393.255L211.56 393.32H217.756H219.33H219.826H219.268H217.657H211.461L188.163 393.424L106.994 393.658L107.292 393.333C107.292 415.625 107.292 440.072 107.292 465.804L106.97 465.467L219.739 465.532L219.479 465.804C219.541 443.629 219.59 425.557 219.615 412.937C219.615 406.641 219.615 401.733 219.615 398.37C219.615 396.709 219.615 395.436 219.615 394.553C219.826 393.891 219.826 393.424 219.826 393.424Z" fill="#263238"/>
<path d="M180.195 410.587H146.612V420.091H180.195V410.587Z" fill="#E0E0E0"/>
<path d="M144.493 213.129H183.12V214.96C183.12 215.7 182.839 216.41 182.34 216.933C181.84 217.457 181.162 217.751 180.456 217.751H147.158C146.451 217.751 145.773 217.457 145.274 216.933C144.774 216.41 144.493 215.7 144.493 214.96V213.129Z" fill="#263238"/>
<path d="M219.008 213.129C219.008 213.129 219.008 213.544 219.008 214.427C219.008 215.31 219.008 216.557 219.008 218.205C219.008 221.542 219.008 226.437 219.07 232.707C219.07 245.327 219.144 263.49 219.206 285.73V285.99H218.946L106.177 286.055H105.817V285.717C105.817 260.037 105.817 235.551 105.817 213.259V212.947H106.115L187.47 213.025H210.705H216.901H218.475H218.995H218.438H216.839H210.643L187.358 213.129L106.189 213.363L106.486 213.051C106.486 235.343 106.486 259.79 106.486 285.509L106.164 285.172L218.933 285.25L218.686 285.509C218.686 263.334 218.785 245.262 218.822 232.642C218.822 226.359 218.822 221.451 218.884 218.089C218.884 216.427 218.884 215.154 218.884 214.272C218.884 213.389 219.008 213.129 219.008 213.129Z" fill="#263238"/>
<path d="M179.997 228.527H146.414V238.03H179.997V228.527Z" fill="#E0E0E0"/>
<path d="M106.586 326.769V299.505C106.586 298.376 107.014 297.292 107.776 296.494C108.538 295.695 109.572 295.247 110.65 295.247H179.972C181.034 295.247 182.052 295.688 182.803 296.475C183.553 297.261 183.975 298.328 183.975 299.44V326.704L106.586 326.769Z" fill="#21569A"/>
<path opacity="0.3" d="M106.586 326.769V299.505C106.586 298.376 107.014 297.292 107.776 296.494C108.538 295.695 109.572 295.247 110.65 295.247H179.972C181.034 295.247 182.052 295.688 182.803 296.475C183.553 297.261 183.975 298.328 183.975 299.44V326.704L106.586 326.769Z" fill="black"/>
<path d="M113.674 326.769V302.803C113.674 302.69 113.715 302.581 113.788 302.499C113.862 302.417 113.963 302.368 114.07 302.361H183.975V326.769H113.674Z" fill="#FAFAFA"/>
<path d="M199.725 297.765L197.73 326.769H122.497L124.505 299.855C124.703 297.259 126.413 295.285 128.458 295.298L165.052 295.506C164.989 294.739 165.212 293.977 165.674 293.379C166.136 292.781 166.802 292.394 167.53 292.299H195.785C198.102 292.325 199.924 294.831 199.725 297.765Z" fill="#21569A"/>
<path d="M137.393 323.952V296.688C137.393 296.127 137.498 295.572 137.703 295.055C137.908 294.537 138.209 294.067 138.588 293.672C138.966 293.276 139.416 292.963 139.91 292.75C140.405 292.536 140.935 292.427 141.47 292.429H210.792C211.853 292.429 212.871 292.871 213.622 293.657C214.373 294.444 214.794 295.51 214.794 296.623V323.965L137.393 323.952Z" fill="#21569A"/>
<path opacity="0.3" d="M137.393 323.952V296.688C137.393 296.127 137.498 295.572 137.703 295.055C137.908 294.537 138.209 294.067 138.588 293.672C138.966 293.276 139.416 292.963 139.91 292.75C140.405 292.536 140.935 292.427 141.47 292.429H210.792C211.853 292.429 212.871 292.871 213.622 293.657C214.373 294.444 214.794 295.51 214.794 296.623V323.965L137.393 323.952Z" fill="black"/>
<path d="M144.493 323.952V299.972C144.492 299.917 144.501 299.861 144.52 299.809C144.539 299.757 144.568 299.71 144.605 299.67C144.642 299.63 144.686 299.598 144.735 299.577C144.784 299.555 144.837 299.544 144.89 299.544H214.794V323.952H144.493Z" fill="#FAFAFA"/>
<path d="M230.545 294.922L228.5 323.952H153.304L155.386 297.025C155.382 295.887 155.786 294.788 156.518 293.946C157.25 293.105 158.257 292.582 159.339 292.481L195.933 292.676C195.87 291.909 196.093 291.147 196.555 290.549C197.017 289.951 197.683 289.564 198.412 289.469H226.629C228.922 289.469 230.743 292.001 230.545 294.922Z" fill="#21569A"/>
<path d="M180.27 325.523V298.258C180.268 297.698 180.372 297.143 180.576 296.625C180.779 296.107 181.078 295.636 181.456 295.239C181.833 294.842 182.282 294.527 182.776 294.312C183.27 294.098 183.8 293.987 184.334 293.987H253.656C254.183 293.987 254.705 294.096 255.191 294.308C255.677 294.519 256.119 294.829 256.491 295.22C256.863 295.611 257.158 296.074 257.358 296.585C257.558 297.095 257.661 297.642 257.659 298.194V325.523H180.27Z" fill="#21569A"/>
<path opacity="0.3" d="M180.27 325.523V298.258C180.268 297.698 180.372 297.143 180.576 296.625C180.779 296.107 181.078 295.636 181.456 295.239C181.833 294.842 182.282 294.527 182.776 294.312C183.27 294.098 183.8 293.987 184.334 293.987H253.656C254.183 293.987 254.705 294.096 255.191 294.308C255.677 294.519 256.119 294.829 256.491 295.22C256.863 295.611 257.158 296.074 257.358 296.585C257.558 297.095 257.661 297.642 257.659 298.194V325.523H180.27Z" fill="black"/>
<path d="M187.37 325.523V301.556C187.367 301.445 187.405 301.336 187.477 301.254C187.549 301.171 187.648 301.122 187.755 301.115H257.659V325.523H187.37Z" fill="#FAFAFA"/>
<path d="M261.798 294.87H190.89V338.415H261.798V294.87Z" fill="#E0E0E0"/>
<path d="M267.635 275.538H196.181V321.965H267.635V275.538Z" fill="#F5F5F5"/>
<path d="M209.206 319.031C209.02 319.031 208.883 311.008 208.883 301.115C208.883 291.222 209.02 283.198 209.206 283.198C209.391 283.198 209.528 291.222 209.528 301.115C209.528 311.008 209.379 319.031 209.206 319.031Z" fill="#263238"/>
<path d="M214.274 319.031C214.101 319.031 213.952 311.008 213.952 301.115C213.952 291.222 214.101 283.198 214.274 283.198C214.447 283.198 214.596 291.222 214.596 301.115C214.596 311.008 214.46 319.031 214.274 319.031Z" fill="#263238"/>
<path d="M219.826 319.031C219.64 319.031 219.503 311.008 219.503 301.115C219.503 291.222 219.64 283.198 219.826 283.198C220.012 283.198 220.148 291.222 220.148 301.115C220.148 311.008 219.987 319.031 219.826 319.031Z" fill="#263238"/>
<path d="M225.34 319.031C225.167 319.031 225.018 311.008 225.018 301.115C225.018 291.222 225.167 283.198 225.34 283.198C225.514 283.198 225.662 291.222 225.662 301.115C225.662 311.008 225.514 319.031 225.34 319.031Z" fill="#263238"/>
<path d="M230.867 319.031C230.694 319.031 230.545 311.008 230.545 301.115C230.545 291.222 230.694 283.198 230.867 283.198C231.041 283.198 231.189 291.222 231.189 301.115C231.189 311.008 231.053 319.031 230.867 319.031Z" fill="#263238"/>
<path d="M236.406 319.031C236.221 319.031 236.084 311.008 236.084 301.115C236.084 291.222 236.221 283.198 236.406 283.198C236.592 283.198 236.729 291.222 236.729 301.115C236.729 311.008 236.58 319.031 236.406 319.031Z" fill="#263238"/>
<path d="M241.933 319.031C241.76 319.031 241.611 311.008 241.611 301.115C241.611 291.222 241.76 283.198 241.933 283.198C242.107 283.198 242.256 291.222 242.256 301.115C242.256 311.008 242.132 319.031 241.933 319.031Z" fill="#263238"/>
<path d="M247.46 319.031C247.287 319.031 247.138 311.008 247.138 301.115C247.138 291.222 247.287 283.198 247.46 283.198C247.634 283.198 247.782 291.222 247.782 301.115C247.782 311.008 247.646 319.031 247.46 319.031Z" fill="#263238"/>
<path d="M253 319.031C252.814 319.031 252.665 311.008 252.665 301.115C252.665 291.222 252.814 283.198 253 283.198C253.186 283.198 253.322 291.222 253.322 301.115C253.322 311.008 253.173 319.031 253 319.031Z" fill="#263238"/>
<path d="M258.526 319.031C258.341 319.031 258.204 311.008 258.204 301.115C258.204 291.222 258.341 283.198 258.526 283.198C258.712 283.198 258.849 291.222 258.849 301.115C258.849 311.008 258.7 319.031 258.526 319.031Z" fill="#263238"/>
<path d="M273.41 301.647L271.427 325.523H196.181L198.201 303.361C198.294 302.333 198.749 301.379 199.478 300.685C200.207 299.991 201.157 299.607 202.142 299.609L238.749 299.777C238.749 299.089 239.01 298.428 239.474 297.941C239.939 297.454 240.57 297.181 241.227 297.181H269.444C269.992 297.175 270.535 297.29 271.038 297.516C271.542 297.743 271.994 298.077 272.367 298.497C272.741 298.918 273.026 299.415 273.205 299.957C273.385 300.499 273.454 301.075 273.41 301.647Z" fill="#21569A"/>
<path d="M218.723 312.254H105.941V384.816H218.723V312.254Z" fill="#263238"/>
<path d="M286.967 312.254H174.185V384.816H286.967V312.254Z" fill="#455A64"/>
<path d="M286.967 384.505C286.967 384.505 286.967 384.05 286.967 383.206C286.967 382.362 286.967 381.064 286.967 379.415C286.967 376.092 286.967 371.223 286.967 364.978C286.967 352.488 286.88 334.52 286.83 312.501L287.078 312.773L174.309 312.838L174.631 312.501C174.631 338.025 174.631 362.369 174.631 384.518L174.334 384.206L255.453 384.362L278.738 384.44H284.934H286.533H287.091H286.57H284.996H278.8L255.577 384.531L174.259 384.673H173.962V384.505C173.962 362.356 173.962 338.012 173.962 312.488V312.15H174.297L287.066 312.228H287.326V312.488C287.326 334.559 287.215 352.592 287.19 365.121C287.19 371.34 287.19 376.195 287.128 379.506C287.128 381.142 287.128 382.388 287.128 383.245C286.991 384.05 286.967 384.505 286.967 384.505Z" fill="#263238"/>
<path d="M214.77 312.254H253.396V313.851C253.396 314.591 253.116 315.301 252.616 315.825C252.116 316.348 251.439 316.642 250.732 316.642H217.434C216.727 316.642 216.05 316.348 215.55 315.825C215.05 315.301 214.77 314.591 214.77 313.851V312.254Z" fill="#263238"/>
<path d="M251.599 328.522H218.016V338.025H251.599V328.522Z" fill="#E0E0E0"/>
<path d="M250.199 267.034C249.15 271.569 248.523 276.2 248.328 280.861C248.328 281.459 248.328 282.16 248.823 282.484C249.319 282.809 250.063 281.913 250.472 281.381C251.265 280.433 254.189 275.123 254.189 275.123C256.243 274.926 258.156 273.946 259.566 272.369C260.976 270.792 261.783 268.727 261.835 266.567" fill="#FFBE9D"/>
<path d="M261.798 266.567C261.841 266.886 261.841 267.209 261.798 267.528C261.72 268.423 261.507 269.3 261.166 270.124C260.63 271.4 259.815 272.525 258.787 273.409C257.454 274.518 255.854 275.219 254.164 275.434L254.387 275.279C253.458 276.966 252.429 278.81 251.265 280.68C251.079 280.952 250.918 281.225 250.695 281.511C250.472 281.796 250.31 282.004 250.075 282.264C249.836 282.566 249.51 282.78 249.146 282.874C248.93 282.896 248.714 282.845 248.528 282.728C248.343 282.611 248.199 282.434 248.117 282.225C247.913 281.59 247.862 280.912 247.968 280.251C247.968 279.654 248.043 279.07 248.092 278.498C248.254 276.469 248.515 274.45 248.873 272.448C249.17 270.748 249.48 269.384 249.728 268.45C249.819 267.956 249.968 267.476 250.174 267.021C250.161 267.522 250.091 268.019 249.963 268.502C249.802 269.462 249.555 270.825 249.319 272.539C249.084 274.253 248.836 276.278 248.687 278.537L248.576 280.29C248.495 280.837 248.533 281.396 248.687 281.926C248.774 282.134 248.947 282.251 249.046 282.225C249.267 282.133 249.463 281.986 249.616 281.796L250.199 281.069C250.385 280.824 250.559 280.568 250.719 280.303C251.872 278.46 252.913 276.616 253.867 274.954L253.941 274.811H254.09C255.679 274.633 257.191 274.004 258.465 272.994C259.463 272.191 260.269 271.155 260.819 269.969C261.276 268.881 261.605 267.738 261.798 266.567Z" fill="#EB996E"/>
</svg>
